<svg xmlns="http://www.w3.org/2000/svg" width="291.513" height="334.953" viewBox="0 0 291.513 334.953"><defs><style>.a,.b{fill:#fff;}.a{opacity:0.59;}.c{fill:#141f4f;}</style></defs><g transform="translate(-81.487 -182.459)"><g transform="translate(185.622 431.073)"><rect class="a" width="16.673" height="44.193" transform="translate(20.23 0) rotate(14.289)"/><rect class="b" width="13.111" height="44.193" transform="matrix(0.169, -0.986, 0.986, 0.169, 0, 25.938)"/></g><g transform="translate(81.487 182.46)"><g transform="translate(0 0)"><path class="c" d="M1783.965,572.055a78.23,78.23,0,0,0-86.915,67.926c-3.145,25.645,4.4,44.252,12.3,63.885,5.6,14.439,11.618,29.42,13.717,48.342l.493,3.99,75.485,9.257,1.443-3.752c6.126-17.913,15.589-31,24.992-43.595,11.449-17.26,23.263-33.492,26.408-59.138A78.23,78.23,0,0,0,1783.965,572.055Zm-16.634,179.687-10.645-1.305.191-73.65,28.065,3.442Zm49.493-39.117c-8.861,12.174-17.78,24.833-24.815,42.143l-15-1.84,17.611-71.513.484.059,7.258.89a17.063,17.063,0,1,0-14.859-19.013l-.89,7.258-29.033-3.561.89-7.258a17.063,17.063,0,1,0-19.012,14.859l7.742.95-.191,73.65-15-1.84c-2.159-18.438-8.24-32.936-13.9-46.891-7.541-18.607-14.234-36.126-11.385-59.352a68.25,68.25,0,1,1,135.486,16.616C1839.364,681.009,1828.153,696.334,1816.823,712.626ZM1796.29,671.8l.89-7.258a7.313,7.313,0,1,1,6.368,8.148Zm-47.5-13.192-.89,7.258-7.258-.89a7.312,7.312,0,1,1,8.148-6.368Z" transform="translate(-1629.428 -523.074)"/><path class="c" d="M1750.24,1228.165l10.161,1.246a24.381,24.381,0,0,0,47.42,5.815l10.162,1.246,1.187-9.678-67.743-8.307ZM1782.924,1242a14.2,14.2,0,0,1-12.362-11.339l27.1,3.323A14.2,14.2,0,0,1,1782.924,1242Z" transform="translate(-1662.249 -916.903)"/><rect class="c" width="34.125" height="9.75" transform="translate(151.478 33.871) rotate(-83.008)"/><rect class="c" width="9.75" height="43.875" transform="translate(246.777 137.877) rotate(-83.008)"/><rect class="c" width="9.75" height="48.75" transform="translate(0 107.613) rotate(-83.008)"/><rect class="c" width="34.125" height="9.75" transform="translate(227.979 73.135) rotate(-38.008)"/><rect class="c" width="34.125" height="9.75" transform="translate(32.854 163.278) rotate(-38.008)"/><rect class="c" width="9.75" height="34.125" transform="translate(215.998 168.642) rotate(-38.008)"/><rect class="c" width="9.75" height="34.125" transform="translate(49.032 33.556) rotate(-38.008)"/></g></g></g></svg>