<svg xmlns="http://www.w3.org/2000/svg" width="115.078" height="132.459" viewBox="0 0 115.078 132.459"><defs><style>.a,.b{fill:#fff;}.a{opacity:0.59;}.c{fill:#ffcb04;}</style></defs><g transform="translate(47.715 98.697)"><rect class="a" width="6.56" height="17.387" transform="translate(6.658) rotate(7.297)"/><rect class="b" width="5.158" height="17.387" transform="translate(0 11.098) rotate(-87.257)"/></g><g transform="translate(26.851 19.18)"><path class="c" d="M260.928,177.6a30.778,30.778,0,0,0-30.688,30.687c0,10.166,3.837,17.07,7.864,24.359,2.877,5.37,5.946,10.932,7.672,18.22l.384,1.534h29.92l.384-1.534c1.534-7.289,4.6-12.851,7.672-18.22,3.644-7.289,7.48-14.193,7.48-24.359A30.777,30.777,0,0,0,260.928,177.6Zm2.109,70.965h-4.22l-3.452-28.769H266.49Zm17.453-17.645c-2.876,5.178-5.754,10.549-7.672,17.645h-5.946l3.453-28.769h3.069a6.713,6.713,0,1,0-6.713-6.713v2.877H255.173V213.08a6.713,6.713,0,1,0-6.712,6.713h3.069l3.452,28.769h-5.945c-1.726-7.1-4.8-12.467-7.673-17.645-3.836-6.9-7.288-13.426-7.288-22.633a26.851,26.851,0,0,1,53.7,0C287.78,217.492,284.135,224.013,280.491,230.918Zm-9.973-14.96V213.08a2.877,2.877,0,1,1,2.877,2.877Zm-19.18-2.877v2.877h-2.876a2.877,2.877,0,1,1,2.876-2.877Z" transform="translate(-230.24 -177.598)"/></g><g transform="translate(44.113 120.951)"><path class="c" d="M248.268,287.723H252.3a9.592,9.592,0,0,0,18.8,0h4.027v-3.837H248.268Zm13.426,3.836a5.588,5.588,0,0,1-5.371-3.836h10.74A5.587,5.587,0,0,1,261.694,291.559Z" transform="translate(-248.268 -283.886)"/></g><g transform="translate(55.621)"><rect class="c" width="3.836" height="13.426"/></g><g transform="translate(97.816 45.64)"><rect class="c" width="17.262" height="3.836"/></g><g transform="translate(0 45.64)"><rect class="c" width="19.18" height="3.836"/></g><g transform="translate(87.375 15.601)"><rect class="c" width="13.426" height="3.836" transform="translate(0 9.493) rotate(-45)"/></g><g transform="translate(15.495 60.147)"><rect class="c" width="13.426" height="3.836" transform="translate(0 9.493) rotate(-45)"/></g><g transform="translate(87.27 60.252)"><rect class="c" width="3.836" height="13.426" transform="translate(0 2.712) rotate(-45)"/></g><g transform="translate(15.6 15.496)"><rect class="c" width="3.836" height="13.426" transform="translate(0 2.712) rotate(-45)"/></g></svg>