<svg xmlns="http://www.w3.org/2000/svg" width="256.525" height="292.633" viewBox="0 0 256.525 292.633"><defs><style>.a,.b{fill:#fff;}.b{opacity:0.8;}.c{fill:#122155;}.d{fill:#ffbf00;}</style></defs><g transform="translate(-4652.188 1855.678)"><g transform="translate(4652.188 -1855.678)"><path class="a" d="M4682.071-1797.581v23.865h-16.956v-81.962h26.645a26.51,26.51,0,0,1,13.183,3.315,23.638,23.638,0,0,1,9.41,10q3.493,6.69,3.493,16.212,0,9.4-3.726,15.85a23.861,23.861,0,0,1-9.829,9.582,28.621,28.621,0,0,1-13.275,3.134Zm18.26-28.566a14.78,14.78,0,0,0-2.469-8.92,7.835,7.835,0,0,0-6.661-3.375h-9.13v23.625h9.315a7.783,7.783,0,0,0,6.429-3.255A12.8,12.8,0,0,0,4700.331-1826.147Z" transform="translate(-4658.594 1855.678)"/><path class="a" d="M4846.712-1815.179a58.022,58.022,0,0,1-3.819,21.937q-3.821,9.4-10.714,14.464a25.922,25.922,0,0,1-15.744,5.063h-28.322v-81.962h28.694a25.931,25.931,0,0,1,16.257,5.182,31.591,31.591,0,0,1,10.2,14.344A59.348,59.348,0,0,1,4846.712-1815.179Zm-17.514,0q0-10.365-3.494-16.814t-9.735-6.449h-10.9v47.49h10.248q6.149,0,10.015-6.268T4829.2-1815.179Z" transform="translate(-4719.548 1855.678)"/><path class="a" d="M4967.172-1813.371l-8.57,14.946-6.8,1.205-10.248-16.151v39.655H4924.6v-81.962h11.645l19.1,31.217,17.515-31.217h11.272v81.962h-16.955Z" transform="translate(-4787.185 1855.678)"/><path class="b" d="M4682.071-1583.447H4709l1.583,17.236h-45.463v-81.962h16.956Z" transform="translate(-4658.594 1752.845)"/><path class="b" d="M4783.29-1652.608a13.054,13.054,0,0,1-2.748,8.317,8.145,8.145,0,0,1-6.568,3.5,7.941,7.941,0,0,1-6.428-3.5,13.186,13.186,0,0,1-2.7-8.317,13.632,13.632,0,0,1,2.7-8.5,7.913,7.913,0,0,1,6.428-3.556,8.113,8.113,0,0,1,6.568,3.556A13.493,13.493,0,0,1,4783.29-1652.608Zm-.745,19.767v58.458h-16.956v-58.458Z" transform="translate(-4708.016 1761.016)"/><path class="b" d="M4859.723-1543.205a27.846,27.846,0,0,1-3.122,13.319,22.977,22.977,0,0,1-8.757,9.161,25.168,25.168,0,0,1-13,3.314,41.664,41.664,0,0,1-10.341-1.748,27.1,27.1,0,0,1-10.341-5l5.125-15.428a26.71,26.71,0,0,0,7.546,3.556,26.726,26.726,0,0,0,6.8.9,9.339,9.339,0,0,0,6.568-2.351,7.611,7.611,0,0,0,2.562-5.846v-2.048a16.176,16.176,0,0,1-6.707,1.566,20.748,20.748,0,0,1-16.815-7.714q-6.384-7.712-6.383-22.781,0-15.307,6.475-23.323t17.468-8.016q6.708,0,12.2,5.786l2.236-3.616h8.478Zm-16.956-19.285v-24.71a9.915,9.915,0,0,0-4.844-1.566q-3.264,0-5.4,3.857t-2.143,10.487q0,6.629,2.143,10.185a6.789,6.789,0,0,0,6.149,3.556A6.235,6.235,0,0,0,4842.767-1562.49Z" transform="translate(-4731.812 1731.768)"/><path class="b" d="M4975.067-1607.017v37.727h-16.955v-35.678q0-6.989-4.844-6.991a12.922,12.922,0,0,0-4.192,1.024,31.8,31.8,0,0,0-4.937,2.351v39.293h-16.956v-83.77l16.956-1.326v29.771q7.825-5.062,14.532-5.062,8.2,0,12.3,6.208T4975.067-1607.017Z" transform="translate(-4788.466 1755.924)"/><path class="b" d="M5056.394-1615.273h11.832l1.584,17.236h-13.416v14.463a9.99,9.99,0,0,0,1.444,5.726,4.467,4.467,0,0,0,3.866,2.11,11.007,11.007,0,0,0,6.521-2.29l4.845,14.946a16.191,16.191,0,0,1-5.543,3.555,17.672,17.672,0,0,1-6.94,1.627,21.4,21.4,0,0,1-10.434-2.651,19.7,19.7,0,0,1-7.779-7.895,25.671,25.671,0,0,1-2.935-12.716v-16.874h-6.987v-17.236h6.987v-15.79l16.956-3.014Z" transform="translate(-4840.634 1745.859)"/><path class="a" d="M4652.188-1440.667h54.22l1.583,17.235h-20.216v64.726H4670.82v-64.726h-18.632Z" transform="translate(-4652.188 1650.013)"/><path class="a" d="M4787.8-1380.3a18.566,18.566,0,0,0-5.449,1.024,32.093,32.093,0,0,0-5.823,2.471l-4.472-15.79a43.087,43.087,0,0,1,9.316-3.918,36.712,36.712,0,0,1,10.621-1.627q9.035,0,13.881,6.509t4.844,17.839v36.16h-8.2l-4.844-6.026q-4.473,7.353-10.155,7.352-8.383,0-12.67-5.424t-4.286-14.7q0-17.115,17.7-17.116h5.4a8.808,8.808,0,0,0-1.909-5.062A5.113,5.113,0,0,0,4787.8-1380.3Zm.745,18.8a3.376,3.376,0,0,0-2.747,1.326,5.2,5.2,0,0,0-1.072,3.375,4.685,4.685,0,0,0,.885,2.953,2.667,2.667,0,0,0,2.189,1.146q2.887,0,5.963-3.254v-5.545Z" transform="translate(-4710.854 1628.935)"/><path class="a" d="M4886.7-1446.88v85.1h-16.955v-83.77Z" transform="translate(-4760.001 1653.091)"/><path class="a" d="M4942.472-1380.587v18.8h-16.956v-83.77l16.956-1.326v43.391l16.862-18.441,10.154,15.066-12.018,11.691,15.278,33.388h-18.26l-8.943-21.816Z" transform="translate(-4787.64 1653.091)"/><path class="a" d="M5042.5-1336.3a37.465,37.465,0,0,1-9.922-1.687,20.861,20.861,0,0,1-9.362-5.183l4.751-13.862a28.163,28.163,0,0,0,6.568,2.893,22.218,22.218,0,0,0,6.289,1.2,5.044,5.044,0,0,0,2.795-.723,2.2,2.2,0,0,0,1.118-1.928q0-.723-1.257-1.747a13.685,13.685,0,0,0-3.214-1.869,40.2,40.2,0,0,1-11.6-7.714,15.69,15.69,0,0,1-4.518-11.691q0-9.159,5.31-14.344t14.72-5.183a32,32,0,0,1,8.8,1.386,18.658,18.658,0,0,1,8.244,4.882l-4.751,13.861a32.574,32.574,0,0,0-5.729-2.531,17.325,17.325,0,0,0-5.357-.964,6.872,6.872,0,0,0-3.354.723,2.166,2.166,0,0,0-1.3,1.928q0,.724,1.3,1.688a18.813,18.813,0,0,0,3.447,1.928,36.87,36.87,0,0,1,11.412,7.654,16.086,16.086,0,0,1,4.426,11.752q0,9.283-4.752,14.4T5042.5-1336.3Z" transform="translate(-4836.056 1628.935)"/></g><rect class="c" width="92.066" height="19.031" transform="translate(4816.647 -1829.406)"/><g transform="translate(4823.16 -1825.092)"><g transform="translate(0 0)"><path class="d" d="M4992.72-1791.773v6.859h-1.594v-9.677h1.508l4.753,6.816v-6.816H4999v9.677h-1.523Z" transform="translate(-4991.126 1794.819)"/><path class="d" d="M5022.13-1786.166l.242,1.252h-6.447v-9.677h6.205l.228,1.252h-4.839v2.889h3.217l.241,1.252h-3.458v3.031Z" transform="translate(-5003.416 1794.819)"/><path class="d" d="M5033.783-1794.591h7.742l.242,1.266h-3.316v8.411h-1.623v-8.411h-3.045Z" transform="translate(-5012.266 1794.819)"/><path class="d" d="M5062.8-1785.04l-2.078-7.4-2.036,7.4h-1.395l-2.889-9.578,1.594-.227,2.021,7.628,1.937-7.5h1.579l1.992,7.5,1.936-7.5h1.594l-2.861,9.677Z" transform="translate(-5022.485 1794.945)"/><path class="d" d="M5085.074-1789.934a5.633,5.633,0,0,1,.591-2.6,4.5,4.5,0,0,1,1.657-1.814,4.693,4.693,0,0,1,2.42-.691,4.617,4.617,0,0,1,2.462.654,4.387,4.387,0,0,1,1.644,1.794,5.584,5.584,0,0,1,.576,2.562,5.607,5.607,0,0,1-.6,2.619,4.509,4.509,0,0,1-1.665,1.807,4.654,4.654,0,0,1-2.433.668,4.586,4.586,0,0,1-2.441-.647,4.352,4.352,0,0,1-1.637-1.786A5.6,5.6,0,0,1,5085.074-1789.934Zm4.7-3.742a2.692,2.692,0,0,0-1.537.469,3.16,3.16,0,0,0-1.1,1.323,4.535,4.535,0,0,0-.4,1.936,4.6,4.6,0,0,0,.37,1.886,3.061,3.061,0,0,0,1.046,1.3,2.66,2.66,0,0,0,1.558.47,2.742,2.742,0,0,0,1.544-.456,3.09,3.09,0,0,0,1.088-1.3,4.613,4.613,0,0,0,.4-1.985,4.55,4.55,0,0,0-.37-1.879,3.061,3.061,0,0,0-1.046-1.3A2.668,2.668,0,0,0,5089.771-1793.677Z" transform="translate(-5037.684 1795.043)"/><path class="d" d="M5111.4-1784.914v-9.677h2.889a4.588,4.588,0,0,1,2.7.733,2.5,2.5,0,0,1,1.039,2.184,2.648,2.648,0,0,1-.455,1.551,2.906,2.906,0,0,1-1.21,1l2.406,4.212h-1.723l-2.105-3.814a5.609,5.609,0,0,1-.784.043h-1.167v3.771Zm4.953-6.689a1.447,1.447,0,0,0-.54-1.267,2.661,2.661,0,0,0-1.553-.384h-1.266v3.259h1.238a2.755,2.755,0,0,0,1.537-.384A1.36,1.36,0,0,0,5116.349-1791.6Z" transform="translate(-5050.728 1794.819)"/><path class="d" d="M5134.6-1788.312v3.188h-1.594v-9.677h1.594v4.27l4.312-4.484,1.153.925-3.374,3.572,4.042,5.393h-1.964l-3.173-4.255Z" transform="translate(-5061.438 1795.029)"/></g></g></g></svg>