<svg xmlns="http://www.w3.org/2000/svg" width="51.907" height="65.349" viewBox="0 0 51.907 65.349"><defs><style>.a,.b{fill:#fff;}.b{opacity:0.8;}</style></defs><g transform="translate(-5296.64 1855.678)"><g transform="translate(5296.64 -1855.678)"><path class="a" d="M5313.354-1842.7v5.329h-3.786v-18.3h5.95a5.92,5.92,0,0,1,2.944.74,5.276,5.276,0,0,1,2.1,2.234,7.741,7.741,0,0,1,.78,3.62,6.978,6.978,0,0,1-.832,3.54,5.328,5.328,0,0,1-2.2,2.14,6.39,6.39,0,0,1-2.964.7Zm4.078-6.379a3.3,3.3,0,0,0-.551-1.992,1.751,1.751,0,0,0-1.488-.754h-2.039v5.276h2.081a1.738,1.738,0,0,0,1.436-.727A2.857,2.857,0,0,0,5317.432-1849.083Z" transform="translate(-5308.111 1855.678)"/><path class="a" d="M5445.653-1846.634a12.961,12.961,0,0,1-.853,4.9,7.291,7.291,0,0,1-2.393,3.23,5.787,5.787,0,0,1-3.516,1.13h-6.325v-18.3h6.408a5.792,5.792,0,0,1,3.63,1.157,7.056,7.056,0,0,1,2.278,3.2A13.254,13.254,0,0,1,5445.653-1846.634Zm-3.911,0a7.871,7.871,0,0,0-.78-3.755,2.4,2.4,0,0,0-2.174-1.44h-2.434v10.605h2.289a2.563,2.563,0,0,0,2.236-1.4A7.682,7.682,0,0,0,5441.742-1846.634Z" transform="translate(-5417.255 1855.678)"/><path class="a" d="M5578.558-1846.23l-1.914,3.338-1.519.269-2.289-3.607v8.856h-3.786v-18.3h2.6l4.265,6.971,3.912-6.971h2.517v18.3h-3.786Z" transform="translate(-5538.363 1855.678)"/><path class="b" d="M5313.354-1633.719h6.013l.353,3.849h-10.152v-18.3h3.786Z" transform="translate(-5308.111 1671.548)"/><path class="b" d="M5413.416-1661.969a2.916,2.916,0,0,1-.613,1.857,1.819,1.819,0,0,1-1.467.781,1.773,1.773,0,0,1-1.436-.781,2.944,2.944,0,0,1-.6-1.857,3.043,3.043,0,0,1,.6-1.9,1.766,1.766,0,0,1,1.436-.794,1.811,1.811,0,0,1,1.467.794A3.014,3.014,0,0,1,5413.416-1661.969Zm-.166,4.414v13.055h-3.787v-13.055Z" transform="translate(-5396.606 1686.179)"/><path class="b" d="M5467.779-1591.7a6.227,6.227,0,0,1-.7,2.974,5.135,5.135,0,0,1-1.956,2.046,5.619,5.619,0,0,1-2.9.74,9.3,9.3,0,0,1-2.309-.39,6.049,6.049,0,0,1-2.309-1.117l1.144-3.445a5.958,5.958,0,0,0,1.685.794,5.965,5.965,0,0,0,1.519.2,2.086,2.086,0,0,0,1.467-.525,1.7,1.7,0,0,0,.572-1.306v-.457a3.614,3.614,0,0,1-1.5.35,4.633,4.633,0,0,1-3.755-1.723,7.82,7.82,0,0,1-1.425-5.087,8.128,8.128,0,0,1,1.446-5.208,4.753,4.753,0,0,1,3.9-1.79,3.7,3.7,0,0,1,2.726,1.292l.5-.808h1.893Zm-3.786-4.307v-5.518a2.213,2.213,0,0,0-1.082-.35,1.393,1.393,0,0,0-1.207.861,4.837,4.837,0,0,0-.479,2.342,4.438,4.438,0,0,0,.479,2.274,1.515,1.515,0,0,0,1.373.794A1.392,1.392,0,0,0,5463.993-1596Z" transform="translate(-5439.215 1633.807)"/><path class="b" d="M5582.328-1643.808v8.425h-3.786v-7.968q0-1.561-1.082-1.561a2.891,2.891,0,0,0-.937.229,7.094,7.094,0,0,0-1.1.525v8.775h-3.786v-18.707l3.786-.3v6.648a6.071,6.071,0,0,1,3.246-1.13,3.074,3.074,0,0,1,2.747,1.386A6.576,6.576,0,0,1,5582.328-1643.808Z" transform="translate(-5540.657 1677.061)"/><path class="b" d="M5682.251-1629.877h2.642l.354,3.849h-3v3.23a2.228,2.228,0,0,0,.322,1.279,1,1,0,0,0,.863.471,2.458,2.458,0,0,0,1.456-.511l1.082,3.338a3.614,3.614,0,0,1-1.238.794,3.947,3.947,0,0,1-1.55.364,4.78,4.78,0,0,1-2.33-.592,4.4,4.4,0,0,1-1.737-1.763,5.733,5.733,0,0,1-.656-2.84v-3.768h-1.56v-3.849h1.56v-3.526l3.787-.673Z" transform="translate(-5634.068 1659.039)"/><path class="a" d="M5296.64-1440.667h12.108l.354,3.849h-4.514v14.455H5300.8v-14.455h-4.161Z" transform="translate(-5296.64 1487.417)"/><path class="a" d="M5418.871-1394.151a4.146,4.146,0,0,0-1.217.229,7.158,7.158,0,0,0-1.3.552l-1-3.526a9.619,9.619,0,0,1,2.08-.875,8.2,8.2,0,0,1,2.372-.363,3.632,3.632,0,0,1,3.1,1.453,6.54,6.54,0,0,1,1.082,3.984v8.075h-1.831l-1.082-1.346a2.779,2.779,0,0,1-2.268,1.642,3.388,3.388,0,0,1-2.829-1.211,5.156,5.156,0,0,1-.957-3.284q0-3.822,3.953-3.822h1.207a1.97,1.97,0,0,0-.426-1.13A1.143,1.143,0,0,0,5418.871-1394.151Zm.166,4.2a.753.753,0,0,0-.613.3,1.161,1.161,0,0,0-.239.754,1.046,1.046,0,0,0,.2.659.6.6,0,0,0,.489.256,1.913,1.913,0,0,0,1.332-.727v-1.238Z" transform="translate(-5401.687 1449.676)"/><path class="a" d="M5517.983-1446.88v19H5514.2v-18.707Z" transform="translate(-5489.689 1492.93)"/><path class="a" d="M5573.756-1432.076v4.2h-3.787v-18.707l3.787-.3v9.69l3.765-4.118,2.268,3.365-2.684,2.611,3.412,7.456h-4.078l-2-4.872Z" transform="translate(-5539.179 1492.93)"/><path class="a" d="M5671.973-1384.327a8.365,8.365,0,0,1-2.216-.377,4.657,4.657,0,0,1-2.091-1.157l1.061-3.1a6.284,6.284,0,0,0,1.466.646,4.968,4.968,0,0,0,1.4.269,1.126,1.126,0,0,0,.624-.162.492.492,0,0,0,.25-.431q0-.161-.28-.39a3.062,3.062,0,0,0-.718-.417,8.98,8.98,0,0,1-2.591-1.723,3.5,3.5,0,0,1-1.009-2.611,4.271,4.271,0,0,1,1.186-3.2,4.507,4.507,0,0,1,3.287-1.157,7.142,7.142,0,0,1,1.966.31,4.169,4.169,0,0,1,1.841,1.09l-1.061,3.1a7.307,7.307,0,0,0-1.28-.565,3.871,3.871,0,0,0-1.2-.215,1.538,1.538,0,0,0-.749.161.484.484,0,0,0-.291.431q0,.161.291.377a4.188,4.188,0,0,0,.771.431,8.23,8.23,0,0,1,2.548,1.709,3.59,3.59,0,0,1,.988,2.624,4.554,4.554,0,0,1-1.061,3.217A4.078,4.078,0,0,1,5671.973-1384.327Z" transform="translate(-5625.871 1449.676)"/></g></g></svg>